<?xml version="1.0" encoding="UTF-8"?>
<svg enable-background="new 0 0 512 512" version="1.1" viewBox="0 0 512 512" xml:space="preserve" xmlns="http://www.w3.org/2000/svg">
		<path d="m256 0c-49.456 0-89.693 40.237-89.693 89.693v176.28c0 49.45 40.237 89.687 89.693 89.687s89.693-39.957 89.693-89.071v-176.9c0-49.456-40.237-89.693-89.693-89.693zm52.315 266.58c0 28.503-23.47 51.698-52.315 51.698s-52.321-23.464-52.321-52.315v-176.27c0-28.851 23.47-52.321 52.321-52.321s52.321 23.47 52.315 52.321v176.89z"/>
		<rect x="237.31" y="409.23" width="37.372" height="84.088"/>
		<path d="m305.21 474.63h-98.414c-10.321 0-18.686 8.365-18.686 18.686s8.365 18.686 18.686 18.686h98.414c10.321 0 18.686-8.365 18.686-18.686s-8.365-18.686-18.686-18.686z"/>
		<path d="m397.39 234.82c-10.321 0-18.686 8.365-18.686 18.686v14.949c0 67.656-55.049 122.71-122.71 122.71-67.662 0-122.71-55.049-122.71-122.71v-14.949c0-10.321-8.365-18.686-18.686-18.686s-18.686 8.365-18.686 18.686v14.949c0 88.267 71.811 160.08 160.08 160.08s160.08-71.811 160.08-160.08v-14.949c0-10.32-8.365-18.686-18.686-18.686z"/>
</svg>
