<svg height="512pt" viewBox="0 -49 512 512" width="512pt" xmlns="http://www.w3.org/2000/svg"><path d="m497 244.054688h-14.582031c-8.003907 0-14.515625-6.511719-14.515625-14.515626v-31.953124c0-29.984376-24.394532-54.378907-54.382813-54.378907-29.984375 0-54.378906 24.394531-54.378906 54.378907v162.046874c0 13.445313-10.9375 24.382813-24.378906 24.382813-13.445313 0-24.382813-10.9375-24.382813-24.382813v-305.253906c0-29.984375-24.394531-54.378906-54.378906-54.378906s-54.382812 24.394531-54.382812 54.378906v305.253906c0 13.445313-10.9375 24.382813-24.378907 24.382813-13.441406 0-24.378906-10.9375-24.378906-24.382813v-162.046874c0-29.984376-24.398437-54.378907-54.382813-54.378907-29.984374 0-54.378906 24.394531-54.378906 54.378907v31.953124c0 8.003907-6.511718 14.515626-14.519531 14.515626h-14.578125c-8.285156 0-15 6.714843-15 15 0 8.285156 6.714844 15 15 15h14.582031c13.230469 0 25.125-5.808594 33.285157-15 6.980468-7.863282 11.230468-18.199219 11.230468-29.515626v-31.953124c0-13.441407 10.9375-24.378907 24.378906-24.378907 13.445313 0 24.382813 10.9375 24.382813 24.378907v162.050781c0 29.984375 24.394531 54.378906 54.378906 54.378906s54.382813-24.394531 54.382813-54.378906v-305.257813c0-13.441406 10.9375-24.378906 24.378906-24.378906s24.378906 10.9375 24.378906 24.378906v305.253906c0 29.984376 24.398438 54.382813 54.382813 54.382813s54.378906-24.398437 54.378906-54.382813v-162.046874c0-13.441407 10.9375-24.378907 24.382813-24.378907 13.441406 0 24.378906 10.9375 24.378906 24.378907v31.953124c0 11.316407 4.25 21.652344 11.230468 29.515626 8.160157 9.191406 20.054688 15 33.285157 15h14.582031c8.285156 0 15-6.714844 15-15 0-8.285157-6.714844-15-15-15zm0 0"/></svg>